# Blender3D v249 OBJ File: my_obstrakt.blend
# www.blender3d.org
o Cube
v 0.500000 0.500000 -0.500000
v 0.500000 -0.500000 -0.500000
v -0.500000 -0.500000 -0.500000
v -0.500000 0.500000 -0.500000
v 0.500000 0.500000 0.500000
v 0.500000 -0.500000 0.500000
v -0.500000 -0.500000 0.500000
v -0.500000 0.500000 0.500000
v 0.500000 1.500000 0.500000
v 0.500000 1.500000 -0.500000
v -0.500000 1.500000 -0.500000
v -0.500000 1.500000 0.500000
v -1.500000 -0.500000 -0.500000
v -1.500000 -0.500000 0.500000
v -1.500000 0.500000 0.500000
v -1.500000 0.500000 -0.500000
v 0.500000 -1.500000 -0.500000
v 0.499999 -1.500000 0.500000
v -0.500000 -1.500000 0.500000
v -0.500000 -1.500000 -0.500000
v 1.500000 0.500000 -0.500000
v 1.500000 0.499999 0.500000
v 1.500000 -0.500001 0.500000
v 1.500000 -0.500000 -0.500000
v 0.500000 0.500000 1.500000
v -0.500000 0.500000 1.500000
v -0.500000 -0.500000 1.500000
v 0.500000 -0.500000 1.500000
v 0.500000 0.500000 -1.500000
v 0.500000 -0.500000 -1.500000
v -0.500000 -0.500000 -1.500000
v -0.500000 0.500000 -1.500000
vn 0.000000 0.000000 -1.000000
vn 0.000000 1.000000 0.000000
vn -1.000000 0.000000 0.000000
vn -0.000000 -1.000000 0.000000
vn 1.000000 0.000000 0.000000
vn 0.000000 0.000000 1.000000
vn 1.000000 -0.000001 0.000000
usemtl Material
s off
f 29//1 30//1 31//1
f 29//1 31//1 32//1
f 1//2 29//2 32//2
f 1//2 32//2 4//2
f 4//3 32//3 31//3
f 4//3 31//3 3//3
f 3//4 31//4 30//4
f 3//4 30//4 2//4
f 29//5 1//5 2//5
f 29//5 2//5 30//5
f 25//6 26//6 27//6
f 25//6 27//6 28//6
f 5//7 25//7 28//7
f 5//7 28//7 6//7
f 6//4 28//4 27//4
f 6//4 27//4 7//4
f 7//3 27//3 26//3
f 7//3 26//3 8//3
f 8//2 26//2 25//2
f 8//2 25//2 5//2
f 21//5 22//5 24//5
f 22//7 23//7 24//7
f 1//1 21//1 2//1
f 21//1 24//1 2//1
f 2//4 24//4 23//4
f 2//4 23//4 6//4
f 6//6 23//6 5//6
f 23//6 22//6 5//6
f 21//2 1//2 5//2
f 21//2 5//2 22//2
f 17//4 18//4 20//4
f 18//4 19//4 20//4
f 2//1 17//1 3//1
f 17//1 20//1 3//1
f 3//3 20//3 19//3
f 3//3 19//3 7//3
f 7//6 19//6 6//6
f 19//6 18//6 6//6
f 6//5 18//5 17//5
f 6//5 17//5 2//5
f 13//3 14//3 15//3
f 13//3 15//3 16//3
f 3//1 13//1 16//1
f 3//1 16//1 4//1
f 4//2 16//2 8//2
f 16//2 15//2 8//2
f 8//6 15//6 14//6
f 8//6 14//6 7//6
f 7//4 14//4 13//4
f 7//4 13//4 3//4
f 9//2 10//2 11//2
f 9//2 11//2 12//2
f 5//6 9//6 8//6
f 9//6 12//6 8//6
f 8//3 12//3 11//3
f 8//3 11//3 4//3
f 10//1 1//1 4//1
f 10//1 4//1 11//1
f 1//5 10//5 9//5
f 1//5 9//5 5//5
