# Blender3D v249 OBJ File: my_shar.blend
# www.blender3d.org
o Sphere
v 0.000000 0.000000 -1.000000
v 0.723600 -0.525720 -0.447215
v -0.276385 -0.850640 -0.447215
v -0.894425 0.000000 -0.447215
v -0.276385 0.850640 -0.447215
v 0.723600 0.525720 -0.447215
v 0.276385 -0.850640 0.447215
v -0.723600 -0.525720 0.447215
v -0.723600 0.525720 0.447215
v 0.276385 0.850640 0.447215
v 0.894425 0.000000 0.447215
v 0.000000 0.000000 1.000000
v 0.425323 -0.309011 -0.850654
v -0.162456 -0.499995 -0.850654
v 0.262869 -0.809012 -0.525738
v 0.425323 0.309011 -0.850654
v 0.850648 0.000000 -0.525736
v -0.525730 0.000000 -0.850652
v -0.688189 -0.499997 -0.525736
v -0.162456 0.499995 -0.850654
v -0.688189 0.499997 -0.525736
v 0.262869 0.809012 -0.525738
v 0.951058 0.309013 0.000000
v 0.951058 -0.309013 0.000000
v 0.587786 -0.809017 0.000000
v 0.000000 -1.000000 0.000000
v -0.587786 -0.809017 0.000000
v -0.951058 -0.309013 0.000000
v -0.951058 0.309013 0.000000
v -0.587786 0.809017 0.000000
v 0.000000 1.000000 0.000000
v 0.587786 0.809017 0.000000
v 0.688189 -0.499997 0.525736
v -0.262869 -0.809012 0.525738
v -0.850648 0.000000 0.525736
v -0.262869 0.809012 0.525738
v 0.688189 0.499997 0.525736
v 0.525730 0.000000 0.850652
v 0.162456 -0.499995 0.850654
v -0.425323 -0.309011 0.850654
v -0.425323 0.309011 0.850654
v 0.162456 0.499995 0.850654
v 0.597194 -0.433882 -0.674615
v 0.221076 -0.160619 -0.961939
v -0.084442 -0.259889 -0.961939
v -0.228103 -0.702042 -0.674615
v 0.512753 -0.693775 -0.505728
v -0.007026 -0.862665 -0.505728
v 0.221076 0.160619 -0.961939
v 0.597194 0.433882 -0.674615
v 0.818272 -0.273262 -0.505726
v 0.818272 0.273262 -0.505726
v -0.273266 0.000000 -0.961939
v -0.738174 0.000000 -0.674610
v -0.501373 -0.702043 -0.505727
v -0.822618 -0.259890 -0.505724
v -0.084442 0.259889 -0.961939
v -0.228103 0.702042 -0.674615
v -0.822618 0.259890 -0.505724
v -0.501373 0.702043 -0.505727
v -0.007026 0.862665 -0.505728
v 0.512753 0.693775 -0.505728
v 0.870465 0.433883 -0.232456
v 0.959253 0.160620 0.232455
v 0.870465 -0.433883 -0.232456
v 0.959253 -0.160620 0.232455
v 0.681641 -0.693779 -0.232457
v 0.449185 -0.862668 0.232457
v -0.143661 -0.961938 -0.232456
v 0.143661 -0.961938 0.232456
v -0.449185 -0.862668 -0.232457
v -0.681641 -0.693779 0.232457
v -0.959253 -0.160620 -0.232455
v -0.870465 -0.433883 0.232456
v -0.959253 0.160620 -0.232455
v -0.870465 0.433883 0.232456
v -0.449185 0.862668 -0.232457
v -0.681641 0.693779 0.232457
v -0.143661 0.961938 -0.232456
v 0.143661 0.961938 0.232456
v 0.681641 0.693779 -0.232457
v 0.449185 0.862668 0.232457
v 0.501373 -0.702043 0.505727
v 0.822618 -0.259890 0.505724
v 0.007026 -0.862665 0.505728
v -0.512753 -0.693775 0.505728
v -0.818272 -0.273262 0.505726
v -0.818272 0.273262 0.505726
v -0.512753 0.693775 0.505728
v 0.007026 0.862665 0.505728
v 0.501373 0.702043 0.505727
v 0.822618 0.259890 0.505724
v 0.738174 0.000000 0.674610
v 0.273266 0.000000 0.961939
v 0.228103 -0.702042 0.674615
v 0.084442 -0.259889 0.961939
v -0.597194 -0.433882 0.674615
v -0.221076 -0.160619 0.961939
v -0.597194 0.433882 0.674615
v -0.221076 0.160619 0.961939
v 0.228103 0.702042 0.674615
v 0.084442 0.259889 0.961939
v 0.361804 -0.587779 -0.723612
v 0.138197 -0.425320 -0.894430
v 0.052790 -0.688185 -0.723612
v 0.670817 -0.162457 -0.723611
v 0.447210 0.000000 -0.894429
v 0.670817 0.162457 -0.723611
v -0.447211 -0.525727 -0.723612
v -0.361800 -0.262863 -0.894429
v -0.638195 -0.262864 -0.723609
v -0.638195 0.262864 -0.723609
v -0.361800 0.262863 -0.894429
v -0.447211 0.525727 -0.723612
v 0.052790 0.688185 -0.723612
v 0.138197 0.425320 -0.894430
v 0.361804 0.587779 -0.723612
v 0.947213 -0.162458 -0.276396
v 0.947213 0.162458 -0.276396
v 1.000000 0.000000 0.000000
v 0.138199 -0.951055 -0.276397
v 0.447216 -0.850648 -0.276397
v 0.309017 -0.951056 0.000000
v -0.861804 -0.425322 -0.276396
v -0.670820 -0.688190 -0.276396
v -0.809018 -0.587783 0.000000
v -0.670820 0.688190 -0.276396
v -0.861804 0.425322 -0.276396
v -0.809018 0.587783 0.000000
v 0.447216 0.850648 -0.276397
v 0.138199 0.951055 -0.276397
v 0.309017 0.951056 0.000000
v 0.861804 -0.425322 0.276396
v 0.809018 -0.587783 0.000000
v 0.670820 -0.688190 0.276396
v -0.138199 -0.951055 0.276397
v -0.309017 -0.951056 0.000000
v -0.447216 -0.850648 0.276397
v -0.947213 -0.162458 0.276396
v -1.000000 0.000000 0.000000
v -0.947213 0.162458 0.276396
v -0.447216 0.850648 0.276397
v -0.309017 0.951056 0.000000
v -0.138199 0.951055 0.276397
v 0.670820 0.688190 0.276396
v 0.809018 0.587783 0.000000
v 0.861804 0.425322 0.276396
v 0.447211 -0.525727 0.723612
v 0.638195 -0.262864 0.723609
v 0.361800 -0.262863 0.894429
v -0.361804 -0.587779 0.723612
v -0.052790 -0.688185 0.723612
v -0.138197 -0.425320 0.894430
v -0.670817 0.162457 0.723611
v -0.670817 -0.162457 0.723611
v -0.447210 0.000000 0.894429
v -0.052790 0.688185 0.723612
v -0.361804 0.587779 0.723612
v -0.138197 0.425320 0.894430
v 0.638195 0.262864 0.723609
v 0.447211 0.525727 0.723612
v 0.361800 0.262863 0.894429
vn 0.373614 -0.705610 -0.602103
vn 0.510801 -0.578952 -0.635529
vn 0.455680 -0.453027 -0.766239
vn 0.604867 -0.562695 -0.563480
vn 0.310547 -0.451878 -0.836282
vn 0.187594 -0.577344 -0.794659
vn 0.228689 -0.703820 -0.672562
vn 0.014376 -0.548111 -0.836282
vn -0.158597 -0.810764 -0.563479
vn -0.072939 -0.768624 -0.635529
vn -0.102363 -0.634349 -0.766239
vn 0.112496 -0.790454 -0.602103
vn -0.030193 -0.412228 -0.910581
vn 0.088400 -0.272061 -0.958211
vn 0.052431 -0.161362 -0.985502
vn 0.266732 -0.315749 -0.910580
vn 0.786529 -0.137277 -0.602102
vn 0.708466 -0.306888 -0.635528
vn 0.571670 -0.293378 -0.766239
vn 0.722073 -0.401373 -0.563480
vn 0.525729 -0.155706 -0.836281
vn 0.607057 0.000000 -0.794658
vn 0.740043 0.000000 -0.672560
vn 0.525729 0.155706 -0.836281
vn 0.722073 0.401373 -0.563480
vn 0.708466 0.306888 -0.635528
vn 0.571670 0.293378 -0.766239
vn 0.786529 0.137277 -0.602102
vn 0.382721 0.156102 -0.910580
vn 0.286064 0.000000 -0.958210
vn 0.169666 0.000000 -0.985502
vn 0.382721 -0.156102 -0.910580
vn -0.555626 -0.573370 -0.602102
vn -0.392771 -0.664706 -0.635529
vn -0.290044 -0.573369 -0.766239
vn -0.348241 -0.749146 -0.563479
vn -0.333798 -0.434985 -0.836282
vn -0.491121 -0.356818 -0.794658
vn -0.598706 -0.434986 -0.672561
vn -0.516846 -0.183046 -0.836280
vn -0.820074 -0.099724 -0.563501
vn -0.753547 -0.168145 -0.635526
vn -0.634939 -0.098668 -0.766236
vn -0.717008 -0.351249 -0.602100
vn -0.401386 -0.098668 -0.910579
vn -0.231429 -0.168144 -0.958211
vn -0.137264 -0.099727 -0.985501
vn -0.217872 -0.351248 -0.910580
vn -0.717008 0.351249 -0.602100
vn -0.753547 0.168145 -0.635526
vn -0.634939 0.098668 -0.766236
vn -0.820074 0.099724 -0.563501
vn -0.516846 0.183046 -0.836280
vn -0.491121 0.356818 -0.794658
vn -0.598706 0.434986 -0.672561
vn -0.333798 0.434985 -0.836282
vn -0.348241 0.749146 -0.563479
vn -0.392771 0.664706 -0.635529
vn -0.290044 0.573369 -0.766239
vn -0.555626 0.573370 -0.602102
vn -0.217872 0.351248 -0.910580
vn -0.231429 0.168144 -0.958211
vn -0.137264 0.099727 -0.985501
vn -0.401386 0.098668 -0.910579
vn 0.112496 0.790454 -0.602103
vn -0.072939 0.768624 -0.635529
vn -0.102363 0.634349 -0.766239
vn -0.158597 0.810764 -0.563479
vn 0.014376 0.548111 -0.836282
vn 0.187594 0.577344 -0.794659
vn 0.228689 0.703820 -0.672562
vn 0.310547 0.451878 -0.836282
vn 0.604867 0.562695 -0.563480
vn 0.510801 0.578952 -0.635529
vn 0.455680 0.453027 -0.766239
vn 0.373614 0.705610 -0.602103
vn 0.266732 0.315749 -0.910580
vn 0.088400 0.272061 -0.958211
vn 0.052431 0.161362 -0.985502
vn -0.030193 0.412228 -0.910581
vn 0.941003 -0.293379 -0.168650
vn 0.885265 -0.306890 -0.349463
vn 0.890279 -0.137277 -0.434233
vn 0.826909 -0.401373 -0.393853
vn 0.932509 0.000000 -0.361146
vn 0.982247 0.000000 -0.187592
vn 0.983104 -0.155706 -0.096236
vn 0.983104 0.155706 -0.096236
vn 0.957334 0.000000 0.288983
vn 0.984982 0.000000 0.172658
vn 0.985606 0.156102 0.064905
vn 0.985606 -0.156102 0.064905
vn 0.941003 0.293379 -0.168650
vn 0.885265 0.306890 -0.349463
vn 0.826909 0.401373 -0.393853
vn 0.890279 0.137277 -0.434233
vn 0.011765 -0.985606 -0.168650
vn -0.018309 -0.936771 -0.349464
vn 0.144557 -0.889125 -0.434235
vn -0.126201 -0.910468 -0.393855
vn 0.288164 -0.886868 -0.361146
vn 0.303533 -0.934171 -0.187594
vn 0.155709 -0.983104 -0.096236
vn 0.451884 -0.886871 -0.096236
vn 0.295827 -0.910468 0.289024
vn 0.304374 -0.936774 0.172661
vn 0.453034 -0.889128 0.064905
vn 0.156105 -0.985606 0.064905
vn 0.569811 -0.804284 -0.168651
vn 0.565436 -0.747099 -0.349464
vn 0.637264 -0.662400 -0.393854
vn 0.405674 -0.804281 -0.434235
vn -0.933733 -0.315752 -0.168650
vn -0.896582 -0.272061 -0.349461
vn -0.800941 -0.412231 -0.434234
vn -0.904906 -0.161359 -0.393838
vn -0.754418 -0.548114 -0.361144
vn -0.794655 -0.577348 -0.187594
vn -0.886873 -0.451880 -0.096234
vn -0.703826 -0.703824 -0.096235
vn -0.774493 -0.562697 0.289020
vn -0.796869 -0.578954 0.172661
vn -0.705617 -0.705615 0.064904
vn -0.889129 -0.453030 0.064904
vn -0.588839 -0.790459 -0.168651
vn -0.535807 -0.768627 -0.349463
vn -0.433053 -0.810767 -0.393856
vn -0.639560 -0.634353 -0.434235
vn -0.588839 0.790459 -0.168651
vn -0.535807 0.768627 -0.349463
vn -0.639560 0.634353 -0.434235
vn -0.433053 0.810767 -0.393856
vn -0.754418 0.548114 -0.361144
vn -0.794655 0.577348 -0.187594
vn -0.703826 0.703824 -0.096235
vn -0.886873 0.451880 -0.096234
vn -0.774493 0.562697 0.289020
vn -0.796869 0.578954 0.172661
vn -0.889129 0.453030 0.064904
vn -0.705617 0.705615 0.064904
vn -0.933733 0.315752 -0.168650
vn -0.896582 0.272061 -0.349461
vn -0.904906 0.161359 -0.393838
vn -0.800941 0.412231 -0.434234
vn 0.569811 0.804284 -0.168651
vn 0.565436 0.747099 -0.349464
vn 0.405674 0.804281 -0.434235
vn 0.637264 0.662400 -0.393854
vn 0.288164 0.886868 -0.361146
vn 0.303533 0.934171 -0.187594
vn 0.451884 0.886871 -0.096236
vn 0.155709 0.983104 -0.096236
vn 0.295827 0.910468 0.289024
vn 0.304374 0.936774 0.172661
vn 0.156105 0.985606 0.064905
vn 0.453034 0.889128 0.064905
vn 0.011765 0.985606 -0.168650
vn -0.018309 0.936771 -0.349464
vn -0.126201 0.910468 -0.393855
vn 0.144557 0.889125 -0.434235
vn 0.800941 -0.412231 0.434234
vn 0.896582 -0.272061 0.349461
vn 0.933733 -0.315752 0.168650
vn 0.904906 -0.161359 0.393838
vn 0.886873 -0.451880 0.096234
vn 0.794655 -0.577348 0.187594
vn 0.754418 -0.548114 0.361144
vn 0.703826 -0.703824 0.096235
vn 0.433053 -0.810767 0.393856
vn 0.535807 -0.768627 0.349463
vn 0.588839 -0.790459 0.168651
vn 0.639560 -0.634353 0.434235
vn 0.705617 -0.705615 -0.064904
vn 0.796869 -0.578954 -0.172661
vn 0.774493 -0.562697 -0.289020
vn 0.889129 -0.453030 -0.064904
vn -0.144557 -0.889125 0.434235
vn 0.018309 -0.936771 0.349464
vn -0.011765 -0.985606 0.168650
vn 0.126201 -0.910468 0.393855
vn -0.155709 -0.983104 0.096236
vn -0.303533 -0.934171 0.187594
vn -0.288164 -0.886868 0.361146
vn -0.451884 -0.886871 0.096236
vn -0.637264 -0.662400 0.393854
vn -0.565436 -0.747099 0.349464
vn -0.569811 -0.804284 0.168651
vn -0.405674 -0.804281 0.434235
vn -0.453034 -0.889128 -0.064905
vn -0.304374 -0.936774 -0.172661
vn -0.295827 -0.910468 -0.289024
vn -0.156105 -0.985606 -0.064905
vn -0.890279 -0.137277 0.434233
vn -0.885265 -0.306890 0.349463
vn -0.941003 -0.293379 0.168650
vn -0.826909 -0.401373 0.393853
vn -0.983104 -0.155706 0.096236
vn -0.982247 0.000000 0.187592
vn -0.932509 0.000000 0.361146
vn -0.983104 0.155706 0.096236
vn -0.826909 0.401373 0.393853
vn -0.885265 0.306890 0.349463
vn -0.941003 0.293379 0.168650
vn -0.890279 0.137277 0.434233
vn -0.985606 0.156102 -0.064905
vn -0.984982 0.000000 -0.172658
vn -0.957334 0.000000 -0.288983
vn -0.985606 -0.156102 -0.064905
vn -0.405674 0.804281 0.434235
vn -0.565436 0.747099 0.349464
vn -0.569811 0.804284 0.168651
vn -0.637264 0.662400 0.393854
vn -0.451884 0.886871 0.096236
vn -0.303533 0.934171 0.187594
vn -0.288164 0.886868 0.361146
vn -0.155709 0.983104 0.096236
vn 0.126201 0.910468 0.393855
vn 0.018309 0.936771 0.349464
vn -0.011765 0.985606 0.168650
vn -0.144557 0.889125 0.434235
vn -0.156105 0.985606 -0.064905
vn -0.304374 0.936774 -0.172661
vn -0.295827 0.910468 -0.289024
vn -0.453034 0.889128 -0.064905
vn 0.639560 0.634353 0.434235
vn 0.535807 0.768627 0.349463
vn 0.588839 0.790459 0.168651
vn 0.433053 0.810767 0.393856
vn 0.703826 0.703824 0.096235
vn 0.794655 0.577348 0.187594
vn 0.754418 0.548114 0.361144
vn 0.886873 0.451880 0.096234
vn 0.904906 0.161359 0.393838
vn 0.896582 0.272061 0.349461
vn 0.933733 0.315752 0.168650
vn 0.800941 0.412231 0.434234
vn 0.889129 0.453030 -0.064904
vn 0.796869 0.578954 -0.172661
vn 0.774493 0.562697 -0.289020
vn 0.705617 0.705615 -0.064904
vn 0.290044 -0.573369 0.766239
vn 0.392771 -0.664706 0.635529
vn 0.555626 -0.573370 0.602102
vn 0.348241 -0.749146 0.563479
vn 0.598706 -0.434986 0.672561
vn 0.491121 -0.356818 0.794658
vn 0.333798 -0.434985 0.836282
vn 0.516846 -0.183046 0.836280
vn 0.137264 -0.099727 0.985501
vn 0.231429 -0.168144 0.958211
vn 0.401386 -0.098668 0.910579
vn 0.217872 -0.351248 0.910580
vn 0.634939 -0.098668 0.766236
vn 0.753547 -0.168145 0.635526
vn 0.820074 -0.099724 0.563501
vn 0.717008 -0.351249 0.602100
vn -0.455680 -0.453027 0.766239
vn -0.510801 -0.578952 0.635529
vn -0.373614 -0.705610 0.602103
vn -0.604867 -0.562695 0.563480
vn -0.228689 -0.703820 0.672562
vn -0.187594 -0.577344 0.794659
vn -0.310547 -0.451878 0.836282
vn -0.014376 -0.548111 0.836282
vn -0.052431 -0.161362 0.985502
vn -0.088400 -0.272061 0.958211
vn 0.030193 -0.412228 0.910581
vn -0.266732 -0.315749 0.910580
vn 0.102363 -0.634349 0.766239
vn 0.072939 -0.768624 0.635529
vn 0.158597 -0.810764 0.563479
vn -0.112496 -0.790454 0.602103
vn -0.571670 0.293378 0.766239
vn -0.708466 0.306888 0.635528
vn -0.786529 0.137277 0.602102
vn -0.722073 0.401373 0.563480
vn -0.740043 0.000000 0.672560
vn -0.607057 0.000000 0.794658
vn -0.525729 0.155706 0.836281
vn -0.525729 -0.155706 0.836281
vn -0.169666 0.000000 0.985502
vn -0.286064 0.000000 0.958210
vn -0.382721 -0.156102 0.910580
vn -0.382721 0.156102 0.910580
vn -0.571670 -0.293378 0.766239
vn -0.708466 -0.306888 0.635528
vn -0.722073 -0.401373 0.563480
vn -0.786529 -0.137277 0.602102
vn 0.102363 0.634349 0.766239
vn 0.072939 0.768624 0.635529
vn -0.112496 0.790454 0.602103
vn 0.158597 0.810764 0.563479
vn -0.228689 0.703820 0.672562
vn -0.187594 0.577344 0.794659
vn -0.014376 0.548111 0.836282
vn -0.310547 0.451878 0.836282
vn -0.052431 0.161362 0.985502
vn -0.088400 0.272061 0.958211
vn -0.266732 0.315749 0.910580
vn 0.030193 0.412228 0.910581
vn -0.455680 0.453027 0.766239
vn -0.510801 0.578952 0.635529
vn -0.604867 0.562695 0.563480
vn -0.373614 0.705610 0.602103
vn 0.634939 0.098668 0.766236
vn 0.753547 0.168145 0.635526
vn 0.717008 0.351249 0.602100
vn 0.820074 0.099724 0.563501
vn 0.598706 0.434986 0.672561
vn 0.491121 0.356818 0.794658
vn 0.516846 0.183046 0.836280
vn 0.333798 0.434985 0.836282
vn 0.137264 0.099727 0.985501
vn 0.231429 0.168144 0.958211
vn 0.217872 0.351248 0.910580
vn 0.401386 0.098668 0.910579
vn 0.290044 0.573369 0.766239
vn 0.392771 0.664706 0.635529
vn 0.348241 0.749146 0.563479
vn 0.555626 0.573370 0.602102
usemtl (null)
s off
f 103//1 47//1 15//1
f 47//2 103//2 43//2
f 13//3 43//3 103//3
f 43//4 2//4 47//4
f 103//5 104//5 13//5
f 104//6 103//6 105//6
f 15//7 105//7 103//7
f 105//8 14//8 104//8
f 46//9 48//9 3//9
f 48//10 46//10 105//10
f 14//11 105//11 46//11
f 105//12 15//12 48//12
f 45//13 104//13 14//13
f 104//14 45//14 44//14
f 1//15 44//15 45//15
f 44//16 13//16 104//16
f 106//17 17//17 51//17
f 51//18 43//18 106//18
f 13//19 106//19 43//19
f 43//20 51//20 2//20
f 106//21 13//21 107//21
f 107//22 108//22 106//22
f 17//23 106//23 108//23
f 108//24 107//24 16//24
f 50//25 6//25 52//25
f 52//26 108//26 50//26
f 16//27 50//27 108//27
f 108//28 52//28 17//28
f 49//29 16//29 107//29
f 107//30 44//30 49//30
f 1//31 49//31 44//31
f 44//32 107//32 13//32
f 109//33 55//33 19//33
f 55//34 109//34 46//34
f 14//35 46//35 109//35
f 46//36 3//36 55//36
f 109//37 110//37 14//37
f 110//38 109//38 111//38
f 19//39 111//39 109//39
f 111//40 18//40 110//40
f 54//41 56//41 4//41
f 56//42 54//42 111//42
f 18//43 111//43 54//43
f 111//44 19//44 56//44
f 53//45 110//45 18//45
f 110//46 53//46 45//46
f 1//47 45//47 53//47
f 45//48 14//48 110//48
f 112//49 59//49 21//49
f 59//50 112//50 54//50
f 18//51 54//51 112//51
f 54//52 4//52 59//52
f 112//53 113//53 18//53
f 113//54 112//54 114//54
f 21//55 114//55 112//55
f 114//56 20//56 113//56
f 58//57 60//57 5//57
f 60//58 58//58 114//58
f 20//59 114//59 58//59
f 114//60 21//60 60//60
f 57//61 113//61 20//61
f 113//62 57//62 53//62
f 1//63 53//63 57//63
f 53//64 18//64 113//64
f 115//65 61//65 22//65
f 61//66 115//66 58//66
f 20//67 58//67 115//67
f 58//68 5//68 61//68
f 115//69 116//69 20//69
f 116//70 115//70 117//70
f 22//71 117//71 115//71
f 117//72 16//72 116//72
f 50//73 62//73 6//73
f 62//74 50//74 117//74
f 16//75 117//75 50//75
f 117//76 22//76 62//76
f 49//77 116//77 16//77
f 116//78 49//78 57//78
f 1//79 57//79 49//79
f 57//80 20//80 116//80
f 118//81 24//81 65//81
f 65//82 51//82 118//82
f 17//83 118//83 51//83
f 51//84 65//84 2//84
f 118//85 17//85 119//85
f 119//86 120//86 118//86
f 24//87 118//87 120//87
f 120//88 119//88 23//88
f 64//89 11//89 66//89
f 66//90 120//90 64//90
f 23//91 64//91 120//91
f 120//92 66//92 24//92
f 63//93 23//93 119//93
f 119//94 52//94 63//94
f 6//95 63//95 52//95
f 52//96 119//96 17//96
f 121//97 26//97 69//97
f 69//98 48//98 121//98
f 15//99 121//99 48//99
f 48//100 69//100 3//100
f 121//101 15//101 122//101
f 122//102 123//102 121//102
f 26//103 121//103 123//103
f 123//104 122//104 25//104
f 68//105 7//105 70//105
f 70//106 123//106 68//106
f 25//107 68//107 123//107
f 123//108 70//108 26//108
f 67//109 25//109 122//109
f 122//110 47//110 67//110
f 2//111 67//111 47//111
f 47//112 122//112 15//112
f 124//113 28//113 73//113
f 73//114 56//114 124//114
f 19//115 124//115 56//115
f 56//116 73//116 4//116
f 124//117 19//117 125//117
f 125//118 126//118 124//118
f 28//119 124//119 126//119
f 126//120 125//120 27//120
f 72//121 8//121 74//121
f 74//122 126//122 72//122
f 27//123 72//123 126//123
f 126//124 74//124 28//124
f 71//125 27//125 125//125
f 125//126 55//126 71//126
f 3//127 71//127 55//127
f 55//128 125//128 19//128
f 127//129 30//129 77//129
f 77//130 60//130 127//130
f 21//131 127//131 60//131
f 60//132 77//132 5//132
f 127//133 21//133 128//133
f 128//134 129//134 127//134
f 30//135 127//135 129//135
f 129//136 128//136 29//136
f 76//137 9//137 78//137
f 78//138 129//138 76//138
f 29//139 76//139 129//139
f 129//140 78//140 30//140
f 75//141 29//141 128//141
f 128//142 59//142 75//142
f 4//143 75//143 59//143
f 59//144 128//144 21//144
f 130//145 32//145 81//145
f 81//146 62//146 130//146
f 22//147 130//147 62//147
f 62//148 81//148 6//148
f 130//149 22//149 131//149
f 131//150 132//150 130//150
f 32//151 130//151 132//151
f 132//152 131//152 31//152
f 80//153 10//153 82//153
f 82//154 132//154 80//154
f 31//155 80//155 132//155
f 132//156 82//156 32//156
f 79//157 31//157 131//157
f 131//158 61//158 79//158
f 5//159 79//159 61//159
f 61//160 131//160 22//160
f 133//161 84//161 33//161
f 84//162 133//162 66//162
f 24//163 66//163 133//163
f 66//164 11//164 84//164
f 133//165 134//165 24//165
f 134//166 133//166 135//166
f 33//167 135//167 133//167
f 135//168 25//168 134//168
f 68//169 83//169 7//169
f 83//170 68//170 135//170
f 25//171 135//171 68//171
f 135//172 33//172 83//172
f 67//173 134//173 25//173
f 134//174 67//174 65//174
f 2//175 65//175 67//175
f 65//176 24//176 134//176
f 136//177 85//177 34//177
f 85//178 136//178 70//178
f 26//179 70//179 136//179
f 70//180 7//180 85//180
f 136//181 137//181 26//181
f 137//182 136//182 138//182
f 34//183 138//183 136//183
f 138//184 27//184 137//184
f 72//185 86//185 8//185
f 86//186 72//186 138//186
f 27//187 138//187 72//187
f 138//188 34//188 86//188
f 71//189 137//189 27//189
f 137//190 71//190 69//190
f 3//191 69//191 71//191
f 69//192 26//192 137//192
f 139//193 87//193 35//193
f 87//194 139//194 74//194
f 28//195 74//195 139//195
f 74//196 8//196 87//196
f 139//197 140//197 28//197
f 140//198 139//198 141//198
f 35//199 141//199 139//199
f 141//200 29//200 140//200
f 76//201 88//201 9//201
f 88//202 76//202 141//202
f 29//203 141//203 76//203
f 141//204 35//204 88//204
f 75//205 140//205 29//205
f 140//206 75//206 73//206
f 4//207 73//207 75//207
f 73//208 28//208 140//208
f 142//209 89//209 36//209
f 89//210 142//210 78//210
f 30//211 78//211 142//211
f 78//212 9//212 89//212
f 142//213 143//213 30//213
f 143//214 142//214 144//214
f 36//215 144//215 142//215
f 144//216 31//216 143//216
f 80//217 90//217 10//217
f 90//218 80//218 144//218
f 31//219 144//219 80//219
f 144//220 36//220 90//220
f 79//221 143//221 31//221
f 143//222 79//222 77//222
f 5//223 77//223 79//223
f 77//224 30//224 143//224
f 145//225 91//225 37//225
f 91//226 145//226 82//226
f 32//227 82//227 145//227
f 82//228 10//228 91//228
f 145//229 146//229 32//229
f 146//230 145//230 147//230
f 37//231 147//231 145//231
f 147//232 23//232 146//232
f 64//233 92//233 11//233
f 92//234 64//234 147//234
f 23//235 147//235 64//235
f 147//236 37//236 92//236
f 63//237 146//237 23//237
f 146//238 63//238 81//238
f 6//239 81//239 63//239
f 81//240 32//240 146//240
f 148//241 39//241 95//241
f 95//242 83//242 148//242
f 33//243 148//243 83//243
f 83//244 95//244 7//244
f 148//245 33//245 149//245
f 149//246 150//246 148//246
f 39//247 148//247 150//247
f 150//248 149//248 38//248
f 94//249 12//249 96//249
f 96//250 150//250 94//250
f 38//251 94//251 150//251
f 150//252 96//252 39//252
f 93//253 38//253 149//253
f 149//254 84//254 93//254
f 11//255 93//255 84//255
f 84//256 149//256 33//256
f 151//257 40//257 97//257
f 97//258 86//258 151//258
f 34//259 151//259 86//259
f 86//260 97//260 8//260
f 151//261 34//261 152//261
f 152//262 153//262 151//262
f 40//263 151//263 153//263
f 153//264 152//264 39//264
f 96//265 12//265 98//265
f 98//266 153//266 96//266
f 39//267 96//267 153//267
f 153//268 98//268 40//268
f 95//269 39//269 152//269
f 152//270 85//270 95//270
f 7//271 95//271 85//271
f 85//272 152//272 34//272
f 154//273 41//273 99//273
f 99//274 88//274 154//274
f 35//275 154//275 88//275
f 88//276 99//276 9//276
f 154//277 35//277 155//277
f 155//278 156//278 154//278
f 41//279 154//279 156//279
f 156//280 155//280 40//280
f 98//281 12//281 100//281
f 100//282 156//282 98//282
f 40//283 98//283 156//283
f 156//284 100//284 41//284
f 97//285 40//285 155//285
f 155//286 87//286 97//286
f 8//287 97//287 87//287
f 87//288 155//288 35//288
f 157//289 42//289 101//289
f 101//290 90//290 157//290
f 36//291 157//291 90//291
f 90//292 101//292 10//292
f 157//293 36//293 158//293
f 158//294 159//294 157//294
f 42//295 157//295 159//295
f 159//296 158//296 41//296
f 100//297 12//297 102//297
f 102//298 159//298 100//298
f 41//299 100//299 159//299
f 159//300 102//300 42//300
f 99//301 41//301 158//301
f 158//302 89//302 99//302
f 9//303 99//303 89//303
f 89//304 158//304 36//304
f 160//305 38//305 93//305
f 93//306 92//306 160//306
f 37//307 160//307 92//307
f 92//308 93//308 11//308
f 160//309 37//309 161//309
f 161//310 162//310 160//310
f 38//311 160//311 162//311
f 162//312 161//312 42//312
f 102//313 12//313 94//313
f 94//314 162//314 102//314
f 42//315 102//315 162//315
f 162//316 94//316 38//316
f 101//317 42//317 161//317
f 161//318 91//318 101//318
f 10//319 101//319 91//319
f 91//320 161//320 37//320
